<?xml version="1.0" standalone="no"?>
<!DOCTYPE svg PUBLIC "-//W3C//DTD SVG 20010904//EN"
 "http://www.w3.org/TR/2001/REC-SVG-20010904/DTD/svg10.dtd">
<svg version="1.0" xmlns="http://www.w3.org/2000/svg"
 width="235.000000pt" height="235.000000pt" viewBox="0 0 235.000000 235.000000"
 preserveAspectRatio="xMidYMid meet">
<metadata>
Created by potrace 1.11, written by Peter Selinger 2001-2013
</metadata>
<g transform="translate(0.000000,235.000000) scale(0.100000,-0.100000)"
fill="#000000" stroke="none">
<path d="M1226 2238 c-78 -121 -11 -454 103 -513 l31 -16 0 -119 0 -119 -502
-3 -503 -3 -53 -24 c-48 -21 -97 -55 -196 -132 -44 -35 -79 -119 -73 -177 9
-75 34 -229 40 -239 3 -5 -6 -92 -19 -193 -36 -272 -37 -291 -25 -336 6 -23
21 -48 34 -57 36 -23 271 -97 393 -123 245 -52 461 -69 874 -69 324 0 465 8
595 35 55 11 151 23 214 27 101 5 116 9 142 31 75 63 78 154 7 218 -30 27
-201 115 -300 153 -73 28 -136 43 -240 56 -47 6 -48 7 -50 43 -4 73 0 93 26
119 40 40 56 110 56 248 l0 122 83 41 c101 50 233 163 270 231 32 58 59 167
56 226 -2 38 1 47 30 70 67 57 114 195 114 337 0 66 -4 93 -18 115 -58 91 -91
95 -197 24 -40 -27 -97 -74 -126 -104 -52 -52 -55 -54 -90 -46 -52 12 -178 9
-237 -5 l-50 -12 -73 68 c-40 37 -100 85 -134 107 -52 35 -68 41 -114 41 -45
0 -56 -4 -68 -22z"/>
</g>
</svg>
